<svg width="359" height="120" viewBox="0 0 359 120" fill="none" xmlns="http://www.w3.org/2000/svg">
<path d="M358.258 43.6074L330.079 108.707H311.111L322.195 85.4462L303.852 43.6074H323.132L331.406 65.9318L339.134 43.6074H358.258Z" fill="#3ECA65"/>
<path d="M289.428 51.7251C291.198 49.1752 293.357 47.1458 295.907 45.6366C298.457 44.0755 301.111 43.2949 303.869 43.2949V61.7945H298.951C295.673 61.7945 293.253 62.3669 291.692 63.5118C290.183 64.6566 289.428 66.6861 289.428 69.6003V87.6315H272.1V43.6072H289.428V51.7251Z" fill="#3ECA65"/>
<path d="M216.701 65.6191C216.701 60.9877 217.482 56.9808 219.043 53.5983C220.656 50.1638 222.842 47.5619 225.6 45.7926C228.358 43.9712 231.454 43.0605 234.889 43.0605C237.751 43.0605 240.222 43.659 242.304 44.8559C244.386 46.0007 245.973 47.5879 247.066 49.6174V43.607H264.316V87.6313H247.066V81.6209C245.973 83.6504 244.386 85.2636 242.304 86.4605C240.222 87.6053 237.751 88.1777 234.889 88.1777C231.454 88.1777 228.358 87.2931 225.6 85.5238C222.842 83.7024 220.656 81.1005 219.043 77.718C217.482 74.2835 216.701 70.2505 216.701 65.6191ZM247.066 65.6191C247.066 63.2774 246.467 61.4561 245.27 60.1551C244.073 58.8542 242.538 58.2037 240.665 58.2037C238.791 58.2037 237.256 58.8542 236.059 60.1551C234.863 61.4561 234.264 63.2774 234.264 65.6191C234.264 67.9609 234.863 69.7822 236.059 71.0832C237.256 72.3841 238.791 73.0346 240.665 73.0346C242.538 73.0346 244.073 72.3841 245.27 71.0832C246.467 69.7822 247.066 67.9609 247.066 65.6191Z" fill="#3ECA65"/>
<path d="M181.836 43.0605C184.698 43.0605 187.17 43.659 189.251 44.8559C191.333 46.0007 192.92 47.5879 194.013 49.6174V43.607H211.263V86.8508C211.263 90.9618 210.509 94.7085 209 98.091C207.491 101.474 205.045 104.18 201.662 106.209C198.332 108.238 194.039 109.253 188.783 109.253C181.706 109.253 176.086 107.588 171.923 104.258C167.812 100.979 165.47 96.5039 164.897 90.8317H181.914C182.382 93.1214 184.256 94.2662 187.534 94.2662C189.563 94.2662 191.151 93.7458 192.296 92.7051C193.44 91.6643 194.013 89.7129 194.013 86.8508V81.6209C192.92 83.6504 191.333 85.2636 189.251 86.4605C187.17 87.6053 184.698 88.1777 181.836 88.1777C178.401 88.1777 175.305 87.2931 172.547 85.5238C169.789 83.7024 167.603 81.1005 165.99 77.718C164.429 74.2835 163.648 70.2505 163.648 65.6191C163.648 60.9877 164.429 56.9808 165.99 53.5983C167.603 50.1638 169.789 47.5619 172.547 45.7926C175.305 43.9712 178.401 43.0605 181.836 43.0605ZM194.013 65.6191C194.013 63.2774 193.414 61.4561 192.217 60.1551C191.021 58.8542 189.485 58.2037 187.612 58.2037C185.739 58.2037 184.204 58.8542 183.007 60.1551C181.81 61.4561 181.211 63.2774 181.211 65.6191C181.211 67.9609 181.81 69.7822 183.007 71.0832C184.204 72.3841 185.739 73.0346 187.612 73.0346C189.485 73.0346 191.021 72.3841 192.217 71.0832C193.414 69.7822 194.013 67.9609 194.013 65.6191Z" fill="#3ECA65"/>
<path d="M149.577 40.0945C146.559 40.0945 144.139 39.2879 142.318 37.6747C140.497 36.0615 139.586 34.032 139.586 31.5862C139.586 29.0884 140.497 27.0329 142.318 25.4197C144.139 23.7545 146.559 22.9219 149.577 22.9219C152.543 22.9219 154.937 23.7545 156.759 25.4197C158.58 27.0329 159.491 29.0884 159.491 31.5862C159.491 34.032 158.58 36.0615 156.759 37.6747C154.937 39.2879 152.543 40.0945 149.577 40.0945ZM158.164 43.6071V87.6315H140.835V43.6071H158.164Z" fill="#3ECA65"/>
<path d="M124.474 59.296C127.804 60.0766 130.38 61.6898 132.202 64.1356C134.075 66.5293 135.012 69.3134 135.012 72.4877C135.012 77.3273 133.398 81.074 130.172 83.728C126.998 86.3299 122.418 87.6309 116.434 87.6309H87.4746V32.3662H115.653C121.273 32.3662 125.697 33.5891 128.923 36.0349C132.149 38.4807 133.763 42.0453 133.763 46.7288C133.763 49.9551 132.904 52.6872 131.187 54.9248C129.522 57.1104 127.284 58.5675 124.474 59.296ZM104.803 53.9101H111.516C113.077 53.9101 114.222 53.5978 114.951 52.9734C115.731 52.3489 116.122 51.3862 116.122 50.0852C116.122 48.7322 115.731 47.7435 114.951 47.1191C114.222 46.4426 113.077 46.1043 111.516 46.1043H104.803V53.9101ZM112.687 73.7366C114.248 73.7366 115.393 73.4504 116.122 72.878C116.902 72.2535 117.293 71.2648 117.293 69.9118C117.293 67.2579 115.757 65.9309 112.687 65.9309H104.803V73.7366H112.687Z" fill="#3ECA65"/>
<path d="M37.9806 0.000872585C38.1605 0.000776788 38.1605 0.000776709 38.344 0.000679635C38.5956 0.000975966 38.8472 0.00220602 39.0988 0.00433398C39.4805 0.00735094 39.8621 0.00695702 40.2438 0.00611146C40.49 0.00682291 40.7361 0.00773162 40.9823 0.00885563C41.0946 0.0087394 41.2069 0.00862293 41.3227 0.00850286C42.3732 0.0203127 43.3453 0.206243 44.3352 0.558189C44.6323 0.646562 44.9307 0.730042 45.2293 0.813647C45.2293 0.897948 45.2293 0.982248 45.2293 1.0691C45.415 1.04935 45.415 1.04935 45.6045 1.02919C46.1638 1.02464 46.5382 1.2658 47.003 1.55557C47.266 1.70384 47.4891 1.7776 47.7838 1.83548C47.7838 1.91978 47.7838 2.00408 47.7838 2.09093C47.9024 2.08567 48.0209 2.0804 48.1431 2.07497C48.5502 2.09093 48.5502 2.09093 48.9334 2.34639C48.9334 2.43069 48.9334 2.51499 48.9334 2.60185C49.102 2.60185 49.2706 2.60185 49.4443 2.60185C49.4443 2.68615 49.4443 2.77045 49.4443 2.85731C49.9501 2.92053 49.9501 2.92053 50.4661 2.98504C50.4661 3.06934 50.4661 3.15364 50.4661 3.24049C50.5768 3.27211 50.6874 3.30372 50.8014 3.33629C51.2594 3.50591 51.611 3.71134 51.9989 4.00687C51.9989 4.09117 51.9989 4.17547 51.9989 4.26232C52.1056 4.28603 52.1056 4.28603 52.2144 4.31022C52.538 4.39769 52.8392 4.51667 53.1484 4.64551C53.1484 4.72981 53.1484 4.81411 53.1484 4.90097C53.2607 4.93258 53.373 4.96419 53.4887 4.99676C53.9381 5.16516 54.2311 5.36491 54.6013 5.66734C54.713 5.75691 54.8246 5.84648 54.9396 5.93876C55.0229 6.01779 55.1063 6.09683 55.1921 6.17825C55.1921 6.26255 55.1921 6.34686 55.1921 6.43371C55.2988 6.44557 55.2988 6.44557 55.4076 6.45766C55.8295 6.6059 56.0503 6.86826 56.3417 7.20008C56.3417 7.28438 56.3417 7.36869 56.3417 7.45554C56.5103 7.49769 56.6789 7.53984 56.8526 7.58327C56.8526 7.66757 56.8526 7.75187 56.8526 7.83873C56.9235 7.84811 56.9945 7.8575 57.0676 7.86717C57.4733 8.0033 57.7 8.24088 58.0101 8.53325C58.342 8.84422 58.645 9.11882 59.024 9.37147C59.024 9.49792 59.024 9.62437 59.024 9.75466C59.1083 9.75466 59.1926 9.75466 59.2794 9.75466C59.2794 9.83896 59.2794 9.92326 59.2794 10.0101C59.448 10.0523 59.6166 10.0944 59.7903 10.1378C59.7903 10.2643 59.7903 10.3907 59.7903 10.521C59.8661 10.554 59.9418 10.5869 60.0198 10.6208C60.3238 10.789 60.4941 10.9586 60.7164 11.2235C60.7829 11.3013 60.8494 11.379 60.9179 11.459C61.0676 11.6706 61.0676 11.6706 61.0676 11.926C61.2362 11.9682 61.4048 12.0103 61.5785 12.0538C61.5785 12.1381 61.5785 12.2224 61.5785 12.3092C61.6628 12.3092 61.7471 12.3092 61.834 12.3092C61.834 12.3935 61.834 12.4778 61.834 12.5647C61.9183 12.5647 62.0026 12.5647 62.0894 12.5647C62.3193 12.8288 62.5329 13.0926 62.7441 13.371C62.8038 13.447 62.8636 13.523 62.9252 13.6012C63.3667 14.1773 63.3667 14.1773 63.3667 14.6084C63.451 14.6084 63.5353 14.6084 63.6222 14.6084C63.6617 14.715 63.6617 14.715 63.702 14.8239C63.868 15.1449 63.868 15.1449 64.2129 15.3747C64.9731 15.972 65.5142 16.9353 65.9213 17.8016C66.0056 17.8016 66.0899 17.8016 66.1768 17.8016C66.2486 17.9426 66.2486 17.9426 66.322 18.0865C66.7284 18.8718 66.7284 18.8718 67.2864 19.5499C67.6246 19.8881 67.7066 20.1447 67.8522 20.5891C67.9828 20.9111 68.156 21.1661 68.3561 21.4498C68.6942 21.9331 68.8645 22.3357 68.9868 22.9107C69.0711 22.9107 69.1554 22.9107 69.2423 22.9107C69.3971 23.2203 69.5518 23.53 69.7063 23.8397C69.811 24.0485 69.9165 24.2569 70.0236 24.4644C70.0661 24.5471 70.1086 24.6297 70.1523 24.7149C70.1895 24.7863 70.2267 24.8578 70.2651 24.9314C70.3775 25.1783 70.4721 25.4331 70.5639 25.6883C70.7674 26.2391 71.0389 26.7347 71.3258 27.2455C71.8292 28.1656 72.201 29.093 72.5263 30.0885C72.6333 30.4159 72.7538 30.7309 72.892 31.0464C73.0404 31.3904 73.1579 31.7156 73.2577 32.0753C73.3892 32.5324 73.5412 32.9728 73.7128 33.4164C73.971 34.1104 74.1223 34.811 74.2681 35.5359C74.359 35.9759 74.4824 36.4016 74.6069 36.8331C74.785 37.5995 74.8987 38.3564 74.9586 39.1408C74.9645 39.3883 74.9645 39.3882 75.1178 39.5155C75.1621 39.7431 75.1991 39.9721 75.233 40.2015C75.2651 40.4166 75.2651 40.4166 75.2977 40.6359C75.32 40.7904 75.3423 40.9449 75.3653 41.1041C75.3881 41.2617 75.411 41.4193 75.4345 41.5817C75.7053 43.4719 75.9077 45.3301 75.9683 47.2399C75.9743 47.419 75.9743 47.419 75.9804 47.6018C75.9835 47.7082 75.9866 47.8147 75.9897 47.9243C76.0026 48.2242 76.0026 48.2242 76.1396 48.5842C76.1601 48.9517 76.1753 49.3181 76.1875 49.6859C76.2284 50.7003 76.3272 51.697 76.4589 52.7034C76.6123 53.8898 76.6964 55.0627 76.7343 56.2579C76.7649 57.1809 76.8252 58.0981 76.906 59.018C76.9166 59.141 76.9272 59.2639 76.9382 59.3906C76.995 60.0259 76.995 60.0259 77.0999 60.6544C77.1601 60.9671 77.1813 61.2551 77.1884 61.5731C77.1917 61.6911 77.1951 61.8091 77.1986 61.9306C77.2021 62.0601 77.2057 62.1896 77.2093 62.323C77.2491 63.5321 77.3347 64.7319 77.4472 65.936C77.6859 68.502 77.7695 71.0701 77.8452 73.6455C77.8499 73.8004 77.8546 73.9554 77.8594 74.1151C77.8682 74.4085 77.8765 74.7019 77.8842 74.9954C77.8881 75.1265 77.8919 75.2575 77.8959 75.3925C77.899 75.5068 77.9021 75.6212 77.9053 75.739C77.9265 76.0276 77.9825 76.2778 78.0555 76.5568C78.0717 76.8701 78.0813 77.1837 78.087 77.4973C78.0912 77.6837 78.0954 77.87 78.0997 78.0564C78.1057 78.3481 78.1114 78.6398 78.1164 78.9316C78.1216 79.2146 78.1281 79.4975 78.1349 79.7804C78.1365 79.9094 78.1365 79.9094 78.1381 80.041C78.153 80.6191 78.2655 81.1159 78.4387 81.6659C78.5792 82.574 78.5843 83.5026 78.5984 84.4201C78.6011 84.5205 78.6039 84.6209 78.6067 84.7244C78.6109 85.4349 78.6109 85.4349 78.3928 85.7438C77.9875 86.0092 77.6235 86.2379 77.1614 86.3919C77.1614 86.4762 77.1614 86.5605 77.1614 86.6474C77.0771 86.6474 76.9928 86.6474 76.906 86.6474C76.906 86.7317 76.906 86.816 76.906 86.9028C76.7848 86.9344 76.6636 86.966 76.5388 86.9986C76.1285 87.1181 76.1285 87.1181 75.964 87.4297C75.9376 87.5087 75.9113 87.5878 75.8842 87.6692C75.7577 87.6692 75.6312 87.6692 75.501 87.6692C75.501 87.7535 75.501 87.8378 75.501 87.9247C75.2481 87.9668 74.9952 88.009 74.7346 88.0524C74.6924 88.1788 74.6503 88.3053 74.6069 88.4356C74.3933 88.5758 74.3933 88.5758 74.1279 88.699C74.0355 88.742 73.9431 88.785 73.848 88.8292C73.7612 88.8679 73.6744 88.9066 73.585 88.9465C73.4151 89.0255 73.4151 89.0255 73.2418 89.1061C72.9153 89.212 72.6488 89.2214 72.3077 89.2019C72.3077 89.2862 72.3077 89.3705 72.3077 89.4574C72.1617 89.4744 72.0157 89.4913 71.8652 89.5088C71.6748 89.5315 71.4843 89.5543 71.2939 89.5771C71.1493 89.5938 71.1493 89.5938 71.0018 89.6108C70.5295 89.629 70.5295 89.629 70.1364 89.8406C69.9235 89.8458 69.7105 89.846 69.4977 89.8406C69.4977 89.9249 69.4977 90.0092 69.4977 90.096C68.9919 90.096 68.4861 90.096 67.965 90.096C67.965 90.1803 67.965 90.2646 67.965 90.3515C66.6563 90.557 65.3901 90.6439 64.0638 90.6364C63.8816 90.6362 63.6994 90.6362 63.5172 90.6362C63.1399 90.636 62.7627 90.635 62.3854 90.6332C61.9026 90.6311 61.4197 90.6306 60.9368 90.6307C60.5626 90.6306 60.1884 90.6299 59.8142 90.629C59.6361 90.6286 59.4579 90.6284 59.2797 90.6283C59.0319 90.628 58.7842 90.6268 58.5364 90.6255C58.3958 90.625 58.2552 90.6245 58.1104 90.624C57.7938 90.6092 57.5388 90.5629 57.2358 90.4792C56.9081 90.4563 56.5818 90.438 56.2538 90.4233C55.4502 90.3811 54.6509 90.32 53.8509 90.2318C53.757 90.2222 53.663 90.2127 53.5662 90.2028C53.3405 90.1766 53.1164 90.1375 52.893 90.096C52.7226 89.7552 52.7266 89.4643 52.7014 89.0837C52.6908 88.9318 52.6803 88.7799 52.6695 88.6234C52.6589 88.464 52.6484 88.3045 52.6375 88.1402C52.6166 87.8267 52.5953 87.5132 52.5737 87.1997C52.5644 87.0602 52.5552 86.9207 52.5457 86.7769C52.5131 86.427 52.4522 86.0971 52.3821 85.7533C52.3688 85.5782 52.3597 85.4028 52.3551 85.2274C52.3501 85.081 52.3501 85.081 52.3449 84.9316C52.3396 84.7772 52.3396 84.7772 52.3342 84.6197C52.2942 83.67 52.1673 82.7967 51.96 81.8685C51.8393 81.2461 51.801 80.6285 51.7704 79.996C51.7561 79.6415 51.7561 79.6415 51.6813 79.3823C51.6087 79.0826 51.5826 78.7982 51.5608 78.4907C51.5517 78.3704 51.5426 78.2501 51.5332 78.1262C51.5187 77.9342 51.5187 77.9342 51.5039 77.7383C51.4212 76.7183 51.2941 75.7423 51.0858 74.7406C50.9851 74.2166 50.9173 73.6894 50.8523 73.16C50.8415 73.0725 50.8307 72.985 50.8196 72.8948C50.7652 72.4515 50.7126 72.008 50.662 71.5641C50.5576 70.697 50.4227 69.9524 50.0829 69.1485C50.059 68.7015 50.059 68.7015 50.0829 68.3822C49.9986 68.3822 49.9143 68.3822 49.8275 68.3822C49.7432 68.1714 49.6589 67.9606 49.572 67.7435C49.3613 67.7435 49.1505 67.7435 48.9334 67.7435C48.5239 69.1241 48.4977 70.4162 48.5067 71.8437C48.5068 72.0856 48.5067 72.3274 48.5065 72.5693C48.5064 73.221 48.5087 73.8727 48.5113 74.5244C48.5138 75.2073 48.514 75.8902 48.5144 76.5731C48.5156 77.8641 48.5187 79.1551 48.5226 80.4461C48.5269 81.9168 48.529 83.3874 48.5309 84.8581C48.5349 87.8814 48.5416 90.9046 48.5502 93.9279C48.304 93.9699 48.0578 94.0116 47.8115 94.0532C47.6059 94.0881 47.6059 94.0881 47.396 94.1237C47.0038 94.1855 46.621 94.2208 46.2241 94.2318C46.0293 94.2383 46.0293 94.2383 45.8305 94.245C45.7006 94.2484 45.5707 94.2517 45.4368 94.2552C45.1724 94.2629 44.9079 94.271 44.6435 94.2797C44.5288 94.2827 44.4142 94.2858 44.296 94.2889C43.9509 94.304 43.9509 94.304 43.612 94.3759C43.0081 94.465 42.4117 94.457 41.802 94.4558C41.6702 94.4559 41.5383 94.456 41.4024 94.4561C41.1249 94.4562 40.8474 94.456 40.5699 94.4555C40.1433 94.4548 39.7167 94.4555 39.2901 94.4563C39.0204 94.4562 38.7508 94.456 38.4811 94.4558C38.3528 94.456 38.2246 94.4563 38.0924 94.4566C37.9159 94.456 37.9159 94.456 37.7358 94.4553C37.6317 94.4552 37.5277 94.4551 37.4204 94.455C37.1823 94.4388 37.1823 94.4388 37.0546 94.3111C36.8208 94.2906 36.5865 94.2756 36.3521 94.2632C35.7356 94.2172 35.2204 94.1087 34.6427 93.897C33.5368 93.5011 32.3386 93.423 31.1791 93.2893C31.1471 92.32 31.2185 91.4108 31.3697 90.4538C31.4545 89.8187 31.49 89.1853 31.5186 88.5455C31.5427 88.0304 31.6049 87.5384 31.69 87.0306C31.7211 86.594 31.7457 86.1579 31.7673 85.7208C31.8049 85.0348 31.8049 85.0348 31.8821 84.7454C31.9588 84.4194 31.9665 84.1168 31.973 83.7818C31.9764 83.6424 31.9798 83.503 31.9834 83.3594C31.987 83.2082 31.9906 83.0571 31.9944 82.9013C32.0515 81.001 32.2213 79.1196 32.4144 77.2284C32.4946 76.4374 32.5713 75.6461 32.6485 74.8549C32.6569 74.7685 32.6654 74.6822 32.6741 74.5932C32.8489 72.8037 32.9908 71.0125 33.1142 69.2188C33.1209 69.1225 33.1276 69.0262 33.1345 68.927C33.1519 68.6753 33.1686 68.4236 33.1852 68.1718C33.2206 67.7681 33.2778 67.3757 33.3505 66.9771C33.3926 66.9771 33.4348 66.9771 33.4782 66.9771C33.5683 65.8845 33.6164 64.7936 33.6476 63.6978C33.6868 62.3261 33.737 60.9598 33.8614 59.5928C33.872 59.4748 33.8826 59.3567 33.8935 59.235C33.9719 58.4366 33.9719 58.4366 34.1169 58.2916C34.1439 57.9797 34.1649 57.6701 34.1807 57.3576C34.228 56.4371 34.228 56.4371 34.3075 56.1422C34.3928 55.7768 34.4052 55.4232 34.4227 55.0485C34.6247 51.2102 34.6247 51.2102 35.3542 49.4543C35.6354 48.7773 35.612 48.0288 35.6496 47.3069C35.1438 47.3491 34.638 47.3912 34.1169 47.4346C34.1169 47.5189 34.1169 47.6032 34.1169 47.6901C34.0326 47.6901 33.9482 47.6901 33.8614 47.6901C33.8614 47.7744 33.8614 47.8587 33.8614 47.9456C33.7349 48.0299 33.6085 48.1142 33.4782 48.201C32.9114 49.1024 32.5671 50.1448 32.2009 51.1388C32.1166 51.1388 32.0323 51.1388 31.9455 51.1388C31.9349 51.2968 31.9244 51.4549 31.9135 51.6178C31.8619 52.0914 31.7543 52.4901 31.5862 52.935C31.259 53.8538 31.1278 54.7995 30.9853 55.762C30.8754 56.4852 30.7243 57.163 30.5024 57.8599C30.3607 58.3401 30.2827 58.8275 30.2052 59.3214C30.0455 60.3193 30.0455 60.3193 29.9018 60.463C29.859 60.7984 29.8227 61.1324 29.79 61.4688C29.7018 62.3256 29.5876 63.1737 29.4468 64.0234C29.3122 64.8348 29.2102 65.6371 29.1624 66.4592C29.1354 66.7217 29.1354 66.7217 29.0077 66.8494C28.981 67.1044 28.9607 67.36 28.9438 67.6158C28.8942 68.368 28.8942 68.368 28.7522 68.5099C28.468 69.8231 28.4243 71.1641 28.3611 72.5014C28.3463 72.8078 28.3313 73.1142 28.3155 73.4206C28.3058 73.6095 28.2967 73.7984 28.2882 73.9874C28.2557 74.6265 28.2557 74.6265 28.1136 74.7686C28.087 75.0022 28.0667 75.2366 28.0497 75.4711C28.0001 76.1594 28.0001 76.1594 27.8581 76.3013C27.8275 76.7637 27.8077 77.2253 27.792 77.6884C27.77 78.1904 27.7267 78.6592 27.6067 79.1478C27.4274 79.8907 27.3901 80.6419 27.3392 81.4025C27.3196 81.6884 27.2995 81.9743 27.2789 82.2602C27.2705 82.3853 27.2621 82.5104 27.2534 82.6393C27.2195 82.9432 27.2195 82.9432 27.0918 83.1987C27.0558 83.6754 27.0346 84.1521 27.0124 84.6296C26.964 85.1146 26.964 85.1146 26.8398 85.4749C26.6524 86.055 26.6255 86.6323 26.5809 87.2381C26.5048 88.2452 26.3774 89.2297 26.1977 90.2238C22.8456 90.2475 19.5007 90.1896 16.155 89.9683C15.9945 89.9577 15.8339 89.9471 15.6685 89.9362C14.997 89.8891 14.3442 89.8249 13.6803 89.7129C13.3261 89.6907 12.9729 89.6721 12.6185 89.657C11.7953 89.6166 10.9784 89.5527 10.1597 89.4574C10.0662 89.4468 9.97275 89.4362 9.87642 89.4252C9.226 89.3459 9.226 89.3459 9.08202 89.2019C8.8242 89.1725 8.56598 89.1467 8.30766 89.1221C6.68249 88.9365 5.05468 88.4209 3.52931 87.8403C3.11525 87.668 3.11525 87.668 2.81111 87.6186C2.56785 87.5415 2.56785 87.5415 2.31239 87.1583C2.1675 87.1003 2.02261 87.0424 1.87332 86.9827C1.36189 86.7494 1.29158 86.6144 1.0351 86.1364C0.82367 85.9644 0.611029 85.7937 0.396461 85.6255C0.396461 85.5412 0.396461 85.4569 0.396461 85.3701C0.27001 85.3701 0.143558 85.3701 0.013275 85.3701C-0.0391474 83.7935 0.0685559 82.2672 0.250613 80.7007C0.367749 79.6803 0.450157 78.6662 0.486988 77.6398C0.503853 77.1759 0.531415 76.7194 0.587057 76.2584C0.668066 75.5743 0.691257 74.8899 0.715783 74.2018C0.741085 73.4948 0.767833 72.7915 0.843512 72.0878C0.933808 71.2469 0.955357 70.4039 0.984712 69.5592C1.00846 68.9409 1.05698 68.3535 1.16283 67.7435C1.21252 67.2386 1.24759 66.7328 1.28258 66.2267C1.29344 66.0715 1.30429 65.9162 1.31548 65.7562C1.44486 63.829 1.51295 61.8984 1.58466 59.9683C1.58967 59.838 1.59468 59.7076 1.59984 59.5733C1.60927 59.3273 1.6183 59.0813 1.62685 58.8353C1.64915 58.2591 1.69866 57.7105 1.80148 57.142C1.81619 56.9256 1.82671 56.7088 1.83291 56.4919C1.83711 56.3705 1.84131 56.249 1.84563 56.1239C1.85331 55.8758 1.86064 55.6277 1.86759 55.3795C1.89272 54.6714 1.95401 53.9814 2.05394 53.2797C2.1849 52.3491 2.24633 51.4231 2.29119 50.4856C2.35976 49.0706 2.4567 47.6675 2.63171 46.2611C2.90836 44.0227 2.9816 41.7674 3.07876 39.5155C3.16307 39.5155 3.24737 39.5155 3.33422 39.5155C3.32632 39.4153 3.31842 39.3152 3.31027 39.2121C3.33706 38.6942 3.46737 38.2754 3.6251 37.7846C3.73202 37.4509 3.73203 37.4509 3.78127 37.0088C3.84617 36.5707 3.96875 36.2173 4.13153 35.8088C4.27491 35.4341 4.37458 35.0476 4.48378 34.6618C4.52857 34.5538 4.57335 34.4457 4.61949 34.3345C4.75661 33.9779 4.8143 33.6342 4.86697 33.2567C4.95127 33.2567 5.03557 33.2567 5.12242 33.2567C5.11716 33.1645 5.11189 33.0723 5.10646 32.9773C5.1236 32.5916 5.21844 32.3282 5.37788 31.9795C5.46218 31.9795 5.54648 31.9795 5.63334 31.9795C5.62807 31.8477 5.6228 31.716 5.61737 31.5803C5.64199 30.8171 5.90573 30.2793 6.25252 29.608C6.55542 28.9683 6.79177 28.2996 7.03836 27.6367C7.12266 27.6367 7.20696 27.6367 7.29381 27.6367C7.29381 27.4681 7.29381 27.2995 7.29381 27.1258C7.37811 27.1258 7.46242 27.1258 7.54927 27.1258C7.56327 27.0378 7.57726 26.9499 7.59168 26.8593C7.85395 25.7152 8.46618 24.6064 9.05657 23.6008C9.21504 23.2833 9.28453 23.0047 9.33747 22.6553C9.42177 22.6553 9.50607 22.6553 9.59293 22.6553C9.59293 22.5288 9.59293 22.4024 9.59293 22.2721C9.67723 22.2721 9.76153 22.2721 9.84839 22.2721C9.84839 22.1456 9.84839 22.0192 9.84839 21.8889C9.93269 21.8889 10.017 21.8889 10.1038 21.8889C10.1178 21.8153 10.1318 21.7417 10.1463 21.6659C10.2422 21.3421 10.3793 21.1337 10.5748 20.8591C11.0234 20.2074 11.3958 19.5226 11.7643 18.8234C11.8486 18.8234 11.9329 18.8234 12.0198 18.8234C12.0303 18.7496 12.0409 18.6759 12.0517 18.5999C12.174 18.2331 12.3869 18.0731 12.6584 17.8016C12.7462 17.5898 12.8316 17.3769 12.9139 17.1629C13.0391 17.0327 13.1665 16.9046 13.2971 16.7797C13.3392 16.6533 13.3814 16.5268 13.4248 16.3966C13.5091 16.3966 13.5934 16.3966 13.6803 16.3966C13.6803 16.2701 13.6803 16.1436 13.6803 16.0134C13.7646 16.0134 13.8489 16.0134 13.9357 16.0134C13.9357 15.9291 13.9357 15.8448 13.9357 15.7579C14.02 15.7579 14.1043 15.7579 14.1912 15.7579C14.1991 15.6868 14.207 15.6157 14.2151 15.5424C14.3612 15.1265 14.6444 14.914 14.9575 14.6084C15.0918 14.3995 15.2206 14.187 15.3407 13.9697C15.4672 13.78 15.4672 13.78 15.5962 13.5865C15.6805 13.5865 15.7648 13.5865 15.8516 13.5865C15.8516 13.5022 15.8516 13.4179 15.8516 13.3311C15.9359 13.3311 16.0202 13.3311 16.1071 13.3311C16.1703 13.1414 16.1703 13.1414 16.2348 12.9479C16.4618 12.7239 16.4618 12.7239 16.7378 12.4928C17.2395 12.0694 17.5373 11.7846 17.7676 11.1597C17.8519 11.1597 17.9362 11.1597 18.023 11.1597C18.023 11.0754 18.023 10.9911 18.023 10.9042C18.1073 10.9042 18.1916 10.9042 18.2785 10.9042C18.2785 10.8199 18.2785 10.7356 18.2785 10.6488C18.3628 10.6488 18.4471 10.6488 18.5339 10.6488C18.5461 10.5725 18.5583 10.4963 18.5709 10.4178C18.6814 10.0772 18.8144 9.96688 19.0928 9.74668C19.3292 9.55701 19.5512 9.37625 19.7603 9.15643C19.939 8.98829 19.939 8.98829 20.1944 8.98829C20.1944 8.90398 20.1944 8.81968 20.1944 8.73283C20.2787 8.73283 20.363 8.73283 20.4499 8.73283C20.4499 8.64853 20.4499 8.56423 20.4499 8.47737C20.5342 8.47737 20.6185 8.47737 20.7053 8.47737C20.7053 8.39307 20.7053 8.30877 20.7053 8.22191C20.7896 8.22191 20.8739 8.22191 20.9608 8.22191C20.9608 8.13761 20.9608 8.05331 20.9608 7.96646C21.3009 7.65729 21.6511 7.42279 22.0545 7.20807C22.4786 6.97717 22.7079 6.6872 23.0044 6.30598C23.1309 6.30598 23.2574 6.30598 23.3876 6.30598C23.3876 6.22168 23.3876 6.13738 23.3876 6.05053C23.4719 6.05053 23.5562 6.05053 23.6431 6.05053C23.6431 5.96622 23.6431 5.88192 23.6431 5.79507C23.7695 5.79507 23.896 5.79507 24.0263 5.79507C24.0263 5.71077 24.0263 5.62647 24.0263 5.53961C24.1369 5.48692 24.2476 5.43423 24.3616 5.37995C24.9117 5.09471 25.4047 4.80428 25.8384 4.35812C26.0699 4.13459 26.0699 4.13459 26.4531 4.13459C26.4531 4.05029 26.4531 3.96599 26.4531 3.87914C26.661 3.79598 26.8689 3.71282 27.0768 3.62967C27.3703 3.49191 27.3703 3.49191 27.7075 3.25446C29.1859 2.27368 30.8429 1.66324 32.5427 1.19833C32.9091 1.08682 33.2313 0.957726 33.574 0.789697C34.071 0.552676 34.5075 0.500055 35.0536 0.468853C35.3928 0.430611 35.6698 0.350063 35.9914 0.238275C36.6658 0.0292683 37.2784 -0.00648076 37.9806 0.000872585Z" fill="#3ECA65"/>
<path d="M30.0158 96.9939C30.2872 96.9905 30.5586 96.988 30.83 96.9859C30.9812 96.9845 31.1323 96.983 31.288 96.9814C31.6762 96.9939 31.6762 96.9939 31.9317 97.1216C32.1706 97.1507 32.4103 97.174 32.6502 97.1935C32.7783 97.2042 32.9064 97.2149 33.0383 97.2259C33.1368 97.2337 33.2353 97.2414 33.3367 97.2494C33.3367 97.3337 33.3367 97.418 33.3367 97.5048C33.4829 97.4969 33.4829 97.4969 33.6321 97.4889C33.9753 97.5048 33.9753 97.5048 34.3585 97.7603C35.2491 98.0094 36.1764 98.0569 37.0956 98.0999C37.4417 98.1166 37.7749 98.1367 38.1145 98.2083C38.4509 98.2722 38.7564 98.2874 39.0985 98.2877C39.2884 98.2883 39.2884 98.2883 39.4821 98.2889C39.6173 98.2887 39.7525 98.2884 39.8918 98.2882C40.1017 98.2884 40.1017 98.2884 40.3158 98.2885C40.6111 98.2886 40.9063 98.2884 41.2016 98.2879C41.6542 98.2872 42.1069 98.2879 42.5596 98.2887C42.8465 98.2886 43.1334 98.2884 43.4203 98.2882C43.556 98.2884 43.6917 98.2887 43.8315 98.2889C43.9573 98.2885 44.0831 98.2881 44.2127 98.2877C44.3787 98.2876 44.3787 98.2876 44.5481 98.2874C44.8545 98.2824 44.8545 98.2824 45.2155 98.1435C45.5441 98.1345 45.869 98.1315 46.1974 98.1355C46.287 98.1361 46.3767 98.1366 46.4691 98.1372C46.6898 98.1387 46.9106 98.141 47.1314 98.1435C47.1314 98.0592 47.1314 97.9749 47.1314 97.888C47.2682 97.8618 47.4051 97.8357 47.546 97.8087C47.7245 97.774 47.9029 97.7392 48.0814 97.7044C48.1717 97.6872 48.262 97.67 48.3551 97.6523C48.8026 97.5963 48.8026 97.5963 49.1751 97.3771C49.6221 97.3132 49.6221 97.3132 50.0692 97.2494C50.1113 97.2072 50.1535 97.1651 50.1969 97.1216C50.4097 97.1165 50.6227 97.1162 50.8355 97.1216C50.8578 98.8965 50.879 100.671 50.8994 102.446C50.9009 102.578 50.9024 102.71 50.904 102.846C50.9465 106.569 50.9755 110.291 50.9712 114.014C50.9711 114.109 50.971 114.204 50.9709 114.303C50.9695 115.43 50.9671 116.558 50.9633 117.686C50.6634 117.853 50.3628 118.018 50.0617 118.182C49.9779 118.229 49.894 118.276 49.8077 118.324C49.1335 118.69 48.5157 118.876 47.7576 119.006C47.3759 119.077 47.3759 119.077 47.0206 119.283C46.5489 119.508 46.1041 119.574 45.5907 119.626C45.502 119.636 45.4133 119.647 45.322 119.658C44.8589 119.71 44.4042 119.741 43.9382 119.73C43.9382 119.814 43.9382 119.898 43.9382 119.985C43.1108 119.988 42.2834 119.991 41.456 119.992C41.1745 119.993 40.893 119.994 40.6115 119.995C40.2069 119.996 39.8024 119.997 39.3978 119.998C39.2719 119.998 39.1461 119.999 39.0164 120C38.84 120 38.84 120 38.66 120C38.5568 120 38.4535 120 38.3472 120C38.065 119.985 37.8239 119.93 37.5517 119.857C37.2699 119.835 36.9878 119.817 36.7055 119.801C35.6188 119.729 34.6361 119.519 33.5922 119.219C33.3731 119.16 33.3731 119.16 33.1496 119.1C32.3085 118.871 31.5355 118.64 30.7821 118.197C30.2841 117.201 30.4531 115.642 30.3989 114.533C30.3934 114.42 30.3878 114.308 30.3821 114.192C30.2552 111.57 30.2186 108.946 30.1871 106.322C30.1671 104.705 30.1332 103.092 30.0592 101.476C30.0149 100.492 30.0002 99.5119 30.0078 98.5267C30.0083 98.376 30.0089 98.2254 30.0095 98.0701C30.011 97.7114 30.013 97.3527 30.0158 96.9939Z" fill="#3ECA65"/>
</svg>
